#!OML:ASF H:\ManfredETheater\Project 1\Capture day 1\Session 1\subject.ASF
:FULLY-SPECIFIED
:DEGREES
109
root -3.09462 12.5913 25.1461 -37.7751 52.6933 -37.5067
lowerback 42.1928 -0.923472 5.33689
upperback 11.5627 2.62474 4.61125
thorax -7.12115 1.55342 1.07038
lowerneck -7.42013 -10.3553 -14.5366
upperneck 15.701 -13.933 11.379
head 7.89926 -6.67094 4.66733
rclavicle 5.88403e-014 -5.88403e-014
rhumerus -9.09322 -26.8339 -11.3104
rradius 70.8067
rwrist -7.23583
rhand -28.9294 -0.730703
rfingers 7.12502
rthumb -2.28348 -30.6982
lclavicle 5.88403e-014 -5.88403e-014
lhumerus -60.4099 31.2842 45.6216
lradius 64.9472
lwrist 9.27919
lhand -32.6508 5.70085
lfingers 7.12502
lthumb -5.87703 35.5993
rfemur -48.6145 -20.752 11.9311
rtibia 79.2886
rfoot -9.69962 -5.72287
rtoes -6.90668
lfemur -66.2254 -0.219279 -16.5049
ltibia 82.1875
lfoot -3.36221 -10.4397
ltoes 27.6714
110
root -3.08959 12.5429 25.4773 -37.6489 53.2477 -37.0963
lowerback 42.4963 -0.623318 4.97908
upperback 11.8566 2.91983 4.85579
thorax -6.91862 1.70184 1.39586
lowerneck -6.98403 -10.6374 -14.7817
upperneck 14.924 -14.3328 11.6441
head 7.66305 -6.87915 4.75769
rclavicle 5.24792e-014 5.64548e-014
rhumerus -8.24229 -26.8124 -11.8775
rradius 70.0846
rwrist -7.49192
rhand -28.5366 -1.00526
rfingers 7.12502
rthumb -1.90414 -30.9765
lclavicle 5.24792e-014 5.64548e-014
lhumerus -60.2637 31.5743 46.1617
lradius 65.0423
lwrist 9.83099
lhand -33.1194 6.05063
lfingers 7.12502
lthumb -6.32948 35.9361
rfemur -47.2948 -19.2628 10.1407
rtibia 75.0873
rfoot -10.0866 -6.63008
rtoes -6.99926
lfemur -66.6396 0.0622685 -16.3428
ltibia 83.6983
lfoot -4.38857 -10.5776
ltoes 27.9934
111
root -3.08203 12.4966 25.8097 -37.3639 53.9735 -36.7434
lowerback 42.5133 -0.375265 4.64465
upperback 12.1332 3.1301 5.07104
thorax -6.65317 1.81095 1.71447
lowerneck -6.64449 -10.941 -14.9757
upperneck 14.3129 -14.7616 11.8752
head 7.49918 -7.09672 4.8208
rclavicle -3.49861e-014 3.57812e-014
rhumerus -7.44554 -26.8134 -12.5499
rradius 69.3871
rwrist -7.91647
rhand -28.3651 -1.33136
rfingers 7.12502
rthumb -1.73855 -31.304
lclavicle -3.49861e-014 3.57812e-014
lhumerus -59.9549 31.8279 46.7664
lradius 64.9979
lwrist 10.2713
lhand -33.5002 6.36807
lfingers 7.12502
lthumb -6.69706 36.2422
rfemur -45.9341 -17.9097 8.37694
rtibia 70.7181
rfoot -9.95821 -7.19447
rtoes -7.87324
lfemur -67.1877 0.406 -16.3553
ltibia 85.1264
lfoot -5.52866 -10.6906
ltoes 28.1302
112
root -3.07286 12.4498 26.1437 -37.0862 54.8225 -36.6384
lowerback 42.2891 -0.218534 4.44002
upperback 12.3632 3.2626 5.28903
thorax -6.36449 1.8836 2.00353
lowerneck -6.41339 -11.2712 -15.1441
upperneck 13.8811 -15.2238 12.0784
head 7.41569 -7.32561 4.86018
rclavicle -1.03368e-014 3.57812e-014
rhumerus -6.68247 -26.7996 -13.3179
rradius 68.6651
rwrist -8.42199
rhand -28.3857 -1.6663
rfingers 7.12502
rthumb -1.75838 -31.6388
lclavicle -1.03368e-014 3.57812e-014
lhumerus -59.522 32.0072 47.4287
lradius 64.8079
lwrist 10.5343
lhand -33.7607 6.64143
lfingers 7.12502
lthumb -6.94859 36.5074
rfemur -44.5765 -16.7533 6.79954
rtibia 66.3566
rfoot -9.34278 -7.52845
rtoes -9.12427
lfemur -67.9325 0.748321 -16.3485
ltibia 86.565
lfoot -6.73614 -10.906
ltoes 28.1765
113
root -3.06444 12.4006 26.4805 -37.0132 55.7283 -36.9544
lowerback 41.9158 -0.174087 4.44026
upperback 12.5203 3.33341 5.53666
thorax -6.10303 1.9271 2.24542
lowerneck -6.26212 -11.6197 -15.3301
upperneck 13.5885 -15.711 12.293
head 7.39944 -7.56254 4.8968
rclavicle -1.35174e-014 -5.80451e-014
rhumerus -5.94107 -26.7163 -14.1732
rradius 67.8778
rwrist -8.91754
rhand -28.5446 -1.97961
rfingers 7.12502
rthumb -1.91191 -31.9508
lclavicle -1.35174e-014 -5.80451e-014
lhumerus -59.0435 32.0844 48.0916
lradius 64.4993
lwrist 10.5932
lhand -33.8622 6.80068
lfingers 7.12502
lthumb -7.04655 36.6634
rfemur -43.2438 -15.7977 5.56013
rtibia 62.1713
rfoot -8.31711 -7.77617
rtoes -10.3834
lfemur -68.8789 1.07442 -16.1456
ltibia 88.0676
lfoot -7.98725 -11.3156
ltoes 28.1176
114
root -3.05924 12.3494 26.8204 -37.3724 56.6147 -37.8387
lowerback 41.5168 -0.235498 4.69731
upperback 12.6004 3.38434 5.84987
thorax -5.90713 1.96175 2.43325
lowerneck -6.11287 -11.9853 -15.5646
upperneck 13.3298 -16.2282 12.5642
head 7.41035 -7.81245 4.95303
rclavicle -4.77083e-015 1.11319e-014
rhumerus -5.26209 -26.5402 -15.065
rradius 67.0131
rwrist -9.32098
rhand -28.7649 -2.2618
rfingers 7.12502
rthumb -2.12468 -32.231
lclavicle -4.77083e-015 1.11319e-014
lhumerus -58.5739 32.0461 48.7252
lradius 64.1293
lwrist 10.4859
lhand -33.7535 6.77416
lfingers 7.12502
lthumb -6.94162 36.6404
rfemur -41.9174 -14.9955 4.76545
rtibia 58.337
rfoot -7.05328 -8.02417
rtoes -11.9437
lfemur -69.9615 1.3891 -15.5995
ltibia 89.6423
lfoot -9.24338 -12.0179
ltoes 28.0306
115
root -3.06061 12.2963 27.1633 -38.2515 57.4761 -39.2752
lowerback 41.2047 -0.383948 5.16433
upperback 12.6022 3.42772 6.2187
thorax -5.81251 1.99296 2.57386
lowerneck -5.90173 -12.3568 -15.8451
upperneck 13.0104 -16.7686 12.9302
head 7.41002 -8.07359 5.04565
rclavicle 4.01545e-014 3.45885e-014
rhumerus -4.68271 -26.2552 -15.9815
rradius 66.0718
rwrist -9.58443
rhand -28.9734 -2.50685
rfingers 7.12502
rthumb -2.32601 -32.4739
lclavicle 4.01545e-014 3.45885e-014
lhumerus -58.1652 31.893 49.2829
lradius 63.7664
lwrist 10.2377
lhand -33.4747 6.53517
lfingers 7.12502
lthumb -6.6725 36.41
rfemur -40.6245 -14.2491 4.3245
rtibia 55.0499
rfoot -5.47675 -8.24331
rtoes -14.2926
lfemur -71.0915 1.68143 -14.7156
ltibia 91.2453
lfoot -10.4575 -12.9919
ltoes 27.9559
116
root -3.06938 12.2402 27.5095 -39.7033 58.3046 -41.1734
lowerback 41.1031 -0.596839 5.764
upperback 12.5514 3.47535 6.63147
thorax -5.83187 2.02578 2.68945
lowerneck -5.5866 -12.723 -16.1629
upperneck 12.5489 -17.3187 13.4035
head 7.36478 -8.34205 5.1826
rclavicle -1.11319e-014 0
rhumerus -4.22308 -25.885 -16.9223
rradius 65.079
rwrist -9.66316
rhand -29.0994 -2.73224
rfingers 7.12502
rthumb -2.44768 -32.6979
lclavicle -1.11319e-014 0
lhumerus -57.8498 31.6508 49.7515
lradius 63.4791
lwrist 9.87519
lhand -33.1094 6.1045
lfingers 7.12502
lthumb -6.31984 35.9902
rfemur -39.3437 -13.5605 4.15228
rtibia 52.5723
rfoot -3.88986 -8.47764
rtoes -16.8218
lfemur -72.1314 1.9296 -13.5526
ltibia 92.8238
lfoot -11.599 -14.1764
ltoes 27.8564
